<?xml version="1.0" encoding="UTF-8"?>
<svg xmlns="http://www.w3.org/2000/svg" id="Calque_2" data-name="Calque 2" viewBox="0 0 64 64">
  <defs>
    <style>
      .cls-1 {
        fill: #fff;
      }

      .cls-2 {
        fill: #1e5234;
      }
    </style>
  </defs>
  <g id="Calque_1-2" data-name="Calque 1">
    <rect id="Rectángulo_203-2" data-name="Rectángulo 203-2" class="cls-2" width="64" height="64" rx="8" ry="8"></rect>
    <g id="Icon_feather-arrow-left" data-name="Icon feather-arrow-left">
      <path id="Trazado_632" data-name="Trazado 632" class="cls-1" d="m35.78,45.39c-.35,0-.69-.14-.94-.39l-12.19-12.19c-.25-.25-.39-.59-.39-.94,0-.35.14-.69.39-.94l12.19-12.19c.52-.52,1.36-.52,1.89,0,0,0,0,0,0,0,.52.52.52,1.36,0,1.89,0,0,0,0,0,0l-11.25,11.25,11.25,11.25c.52.52.52,1.36,0,1.89-.25.25-.59.39-.94.39Z"></path>
    </g>
  </g>
</svg>
